
        <svg xmlns="http://www.w3.org/2000/svg" xmlns:xlink="http://www.w3.org/1999/xlink" version="1.1" width="3200" 
        height="1782.9298052157296" viewBox="0 0 3200 1782.9298052157296">
			<rect fill="#0c0c0c" width="3200" height="1782.9298052157296"/>
			<g transform="scale(10) translate(10, 10)">
				<defs id="SvgjsDefs1404"><linearGradient id="SvgjsLinearGradient1409"><stop id="SvgjsStop1410" stop-color="#ef4136" offset="0"></stop><stop id="SvgjsStop1411" stop-color="#fbb040" offset="1"></stop></linearGradient><linearGradient id="SvgjsLinearGradient1412"><stop id="SvgjsStop1413" stop-color="#ef4136" offset="0"></stop><stop id="SvgjsStop1414" stop-color="#fbb040" offset="1"></stop></linearGradient></defs><g id="SvgjsG1405" featureKey="symbolFeature-0" transform="matrix(1.3110113067123514,0,0,1.3110113067123514,84.44878451992032,-16.30766981423272)" fill="url(#SvgjsLinearGradient1409)"><g xmlns="http://www.w3.org/2000/svg"><polygon fill="none" points="23.52,53.793 14.409,69.574 23.52,85.355 41.743,85.355 50.855,69.574 41.743,53.793  "></polygon><polygon fill="none" points="41.743,46.207 50.855,30.426 41.743,14.645 23.52,14.645 14.409,30.426 23.52,46.207  "></polygon><polygon fill="none" points="76.48,34.704 58.257,34.704 49.145,50.484 58.257,66.266 76.48,66.266 85.592,50.484  "></polygon><path d="M77.753,32.498h-20.77L46.599,50.484l10.385,17.987h20.77l10.385-17.987L77.753,32.498z M76.48,66.266H58.257   l-9.112-15.781l9.112-15.781H76.48l9.111,15.781L76.48,66.266z"></path><path d="M22.247,51.588L11.862,69.574l10.385,17.986h20.769l10.385-17.986L43.016,51.588H22.247z M41.743,85.355H23.52   l-9.111-15.781l9.111-15.781h18.223l9.112,15.781L41.743,85.355z"></path><path d="M43.016,48.413l10.385-17.986L43.016,12.439H22.247L11.862,30.426l10.385,17.986H43.016z M23.52,14.645h18.223   l9.112,15.781l-9.112,15.781H23.52l-9.111-15.781L23.52,14.645z"></path></g></g><g id="SvgjsG1406" featureKey="nameFeature-0" transform="matrix(1.1565150619075086,0,0,1.1565150619075086,-1.1565161648462197,103.42790977878991)" fill="url(#SvgjsLinearGradient1412)"><path d="M18.76 34.24 l1.52 1.04 c-1.84 3.04 -4.8 5 -9.2 5 c-5.88 0 -10.08 -4.52 -10.08 -10.36 c0 -5.76 4.2 -10.24 10.08 -10.24 c4.6 0 7.4 2 9.2 5.04 l-1.52 1.04 c-1.56 -2.56 -3.8 -4.16 -7.68 -4.16 c-4.84 0 -8.12 3.64 -8.12 8.36 s3.32 8.4 8.16 8.4 c3.88 0 6.08 -1.56 7.64 -4.12 z M24.64 12.600000000000001 l0 10.44 c1.16 -1.8 3.2 -3.36 6.68 -3.36 c4.68 0 7.76 3.16 7.76 8.08 l0 12.24 l-1.96 0 l0 -12 c0 -4.04 -2.24 -6.44 -6 -6.44 c-3.92 0 -6.48 2.64 -6.48 7 l0 11.44 l-1.96 0 l0 -27.4 l1.96 0 z M52.00000000000001 21.56 c-4.8 0 -8.36 3.68 -8.36 8.44 c0 4.72 3.56 8.4 8.36 8.4 c4.72 0 8.36 -3.64 8.36 -8.4 c0 -4.8 -3.64 -8.44 -8.36 -8.44 z M60.24000000000001 40 l0 -3.96 c-1.64 2.48 -4.52 4.24 -8.36 4.24 c-5.72 0 -10.2 -4.48 -10.2 -10.32 c0 -5.8 4.48 -10.28 10.2 -10.28 c3.84 0 6.68 1.72 8.36 4.12 l0 -3.8 l1.96 0 l0 20 l-1.96 0 z M74.04 19.68 l0 2.16 c-3.84 0 -6.68 2.92 -6.68 7.28 l0 10.88 l-1.96 0 l0 -20 l1.96 0 l0 3.72 c0.76 -1.52 2.92 -4.04 6.68 -4.04 z M80.76 20 l5.56 0 l0 1.76 l-5.56 0 l0 12.16 c0 3.36 2.2 4.2 4 4.2 l1.52 0 l0 1.88 l-1.56 0 c-2.72 0 -5.88 -1.52 -5.88 -6.08 l0 -12.16 l-3 0 l0 -1.76 l3 0 l0 -5.8 l1.92 0 l0 5.8 z M106.52000000000001 21.56 c-4.72 0 -8.24 3.6 -8.24 8.24 c0 4.6 3.52 8.2 8.24 8.2 c4.64 0 8.24 -3.44 8.24 -8.2 c0 -4.8 -3.6 -8.24 -8.24 -8.24 z M106.72000000000001 47.44 c-4.48 0 -7.4 -1.96 -9.24 -5 l1.52 -1.04 c1.56 2.56 3.76 4.12 7.72 4.12 c4.88 0 7.92 -2.4 7.92 -7.08 l0 -2.8 c-1.4 2.16 -4.12 4.24 -8.24 4.24 c-5.64 0 -10.08 -4.4 -10.08 -10.12 c0 -5.68 4.44 -10.08 10.08 -10.08 c3.92 0 6.68 1.84 8.24 4.2 l0 -3.88 l1.96 0 l0 18.44 c0 5 -3.6 9 -9.88 9 z M138.84 35.28 c-1.84 3.04 -4.76 5 -9.24 5 c-6.04 0 -10.4 -4.48 -10.4 -10.32 c0 -5.8 4.4 -10.28 10.24 -10.28 c5.96 0 10.12 4.56 10.12 9.68 c0 0.64 -0.04 1.08 -0.08 1.32 l-18.2 0 c0.32 4.88 4 7.68 8.32 7.68 c3.96 0 6.16 -1.56 7.72 -4.12 z M129.44 21.56 c-4.08 0 -7.68 2.84 -8.16 7.32 l16.24 0 c-0.4 -4.52 -3.96 -7.32 -8.08 -7.32 z M150.8 19.68 c4.68 0 7.76 3.16 7.76 8.08 l0 12.24 l-1.96 0 l0 -12 c0 -4.04 -2.24 -6.44 -6 -6.44 c-3.92 0 -6.48 2.64 -6.48 7 l0 11.44 l-1.96 0 l0 -20 l1.96 0 l0 3.04 c1.16 -1.8 3.2 -3.36 6.68 -3.36 z M180.8 35.28 c-1.84 3.04 -4.76 5 -9.24 5 c-6.04 0 -10.4 -4.48 -10.4 -10.32 c0 -5.8 4.4 -10.28 10.24 -10.28 c5.96 0 10.12 4.56 10.12 9.68 c0 0.64 -0.04 1.08 -0.08 1.32 l-18.2 0 c0.32 4.88 4 7.68 8.32 7.68 c3.96 0 6.16 -1.56 7.72 -4.12 z M171.4 21.56 c-4.08 0 -7.68 2.84 -8.16 7.32 l16.24 0 c-0.4 -4.52 -3.96 -7.32 -8.08 -7.32 z M192.76 19.68 l0 2.16 c-3.84 0 -6.68 2.92 -6.68 7.28 l0 10.88 l-1.96 0 l0 -20 l1.96 0 l0 3.72 c0.76 -1.52 2.92 -4.04 6.68 -4.04 z M203.48 21.56 c-4.8 0 -8.36 3.68 -8.36 8.44 c0 4.72 3.56 8.4 8.36 8.4 c4.72 0 8.36 -3.64 8.36 -8.4 c0 -4.8 -3.64 -8.44 -8.36 -8.44 z M211.72 40 l0 -3.96 c-1.64 2.48 -4.52 4.24 -8.36 4.24 c-5.72 0 -10.2 -4.48 -10.2 -10.32 c0 -5.8 4.48 -10.28 10.2 -10.28 c3.84 0 6.68 1.72 8.36 4.12 l0 -3.8 l1.96 0 l0 20 l-1.96 0 z M221 20 l5.56 0 l0 1.76 l-5.56 0 l0 12.16 c0 3.36 2.2 4.2 4 4.2 l1.52 0 l0 1.88 l-1.56 0 c-2.72 0 -5.88 -1.52 -5.88 -6.08 l0 -12.16 l-3 0 l0 -1.76 l3 0 l0 -5.8 l1.92 0 l0 5.8 z M238.88 19.68 c5.8 0 10.28 4.48 10.28 10.28 c0 5.84 -4.48 10.32 -10.28 10.32 c-5.84 0 -10.32 -4.48 -10.32 -10.32 c0 -5.8 4.48 -10.28 10.32 -10.28 z M238.88 21.56 c-4.8 0 -8.36 3.68 -8.36 8.44 c0 4.72 3.56 8.4 8.36 8.4 c4.76 0 8.32 -3.68 8.32 -8.4 c0 -4.76 -3.56 -8.44 -8.32 -8.44 z M260.4 19.68 l0 2.16 c-3.84 0 -6.68 2.92 -6.68 7.28 l0 10.88 l-1.96 0 l0 -20 l1.96 0 l0 3.72 c0.76 -1.52 2.92 -4.04 6.68 -4.04 z"></path></g>
			</g>
		</svg>
	