
        <svg xmlns="http://www.w3.org/2000/svg" xmlns:xlink="http://www.w3.org/1999/xlink" version="1.1" width="3200"
        height="1866.2271091896241" viewBox="0 0 3200 1866.2271091896241">

			<g transform="scale(10) translate(10, 10)">
				<defs id="SvgjsDefs2646"></defs><g id="SvgjsG2647" featureKey="symbolFeature-0" transform="matrix(1.3110113067123514,0,0,1.3110113067123514,84.44878451992032,-16.30766981423272)" fill="#bb86fc"><g xmlns="http://www.w3.org/2000/svg"><polygon fill="none" points="23.52,53.793 14.409,69.574 23.52,85.355 41.743,85.355 50.855,69.574 41.743,53.793  "></polygon><polygon fill="none" points="41.743,46.207 50.855,30.426 41.743,14.645 23.52,14.645 14.409,30.426 23.52,46.207  "></polygon><polygon fill="none" points="76.48,34.704 58.257,34.704 49.145,50.484 58.257,66.266 76.48,66.266 85.592,50.484  "></polygon><path d="M77.753,32.498h-20.77L46.599,50.484l10.385,17.987h20.77l10.385-17.987L77.753,32.498z M76.48,66.266H58.257   l-9.112-15.781l9.112-15.781H76.48l9.111,15.781L76.48,66.266z"></path><path d="M22.247,51.588L11.862,69.574l10.385,17.986h20.769l10.385-17.986L43.016,51.588H22.247z M41.743,85.355H23.52   l-9.111-15.781l9.111-15.781h18.223l9.112,15.781L41.743,85.355z"></path><path d="M43.016,48.413l10.385-17.986L43.016,12.439H22.247L11.862,30.426l10.385,17.986H43.016z M23.52,14.645h18.223   l9.112,15.781l-9.112,15.781H23.52l-9.111-15.781L23.52,14.645z"></path></g></g><g id="SvgjsG2648" featureKey="nameFeature-0" transform="matrix(1.3328594169160366,0,0,1.3328594169160366,-3.145549037434674,103.12528911059523)" fill="#bb86fc"><path d="M8.6 40.4 c-3.84 0 -6.24 -2.64 -6.24 -6.76 l0 -8.16 c0 -4.12 2.36 -6.76 6.12 -6.76 c3.92 0 6.28 2.64 6.32 6.96 l-1.24 0 c-0.04 -3.64 -1.88 -5.76 -5.08 -5.76 c-3.04 0 -4.88 2.12 -4.88 5.56 l0 8.16 c0 3.44 1.88 5.56 5 5.56 c3.16 0 5.04 -2.12 5.08 -5.84 l1.24 0 c-0.04 4.4 -2.44 7.04 -6.32 7.04 z M26.759999999999998 18.72 c3.36 0 5.32 2.6 5.32 7.96 l0 13.32 l-1.24 0 l0 -13.28 c0 -4.64 -1.52 -6.84 -4.32 -6.84 c-3.2 0 -5.56 2.92 -5.56 7.36 l0 12.76 l-1.24 0 l0 -28.84 l1.24 0 l0 11.52 c1.12 -2.44 3.2 -3.96 5.8 -3.96 z M43.4 18.72 c3.68 0 5.8 2.36 5.8 6.36 l0 14.92 l-1.12 0 l-0.08 -2.52 c-0.88 1.8 -2.68 2.96 -5.48 2.96 c-3.52 0 -5.88 -2.36 -5.88 -6.32 c0 -3.88 2.48 -6.08 6.92 -6.08 l4.44 0 l0 -2.96 c0 -3.32 -1.64 -5.2 -4.64 -5.2 c-2.88 0 -4.76 1.84 -4.84 4.28 l-1.24 0 c0.2 -3.12 2.48 -5.44 6.12 -5.44 z M42.68 39.24 c3.52 0 5.32 -2.04 5.32 -5.44 l0 -4.6 l-4.44 0 c-3.72 0 -5.68 1.8 -5.68 4.92 c0 3.24 1.88 5.12 4.8 5.12 z M61.96000000000001 18.72 c0.96 0 1.72 0.12 2.16 0.24 l0 1.32 c-0.76 -0.24 -1.48 -0.36 -2.4 -0.36 c-3.16 0 -5.48 2.92 -5.48 7.32 l0 12.68 l-1.24 0 l0 -20.76 l1.12 0 l0.12 2.64 l0 0.88 c1.12 -2.44 3.16 -3.96 5.72 -3.96 z M74.12 38.96 l0.88 0 l0 1.16 l-0.88 0 c-3.56 0 -5.4 -1.84 -5.4 -5.52 l0 -14.32 l-2.96 0 l0 -1.12 l2.96 0 l0 -4.92 l1.24 0 l0 4.92 l4.72 0 l0 1.12 l-4.72 0 l0 14.32 c0 3.04 1.44 4.36 4.16 4.36 z M99.96 19.16 l1.12 0 l0 22.12 c0 3.96 -2.24 6.36 -5.88 6.36 c-3.84 0 -6.16 -2.24 -6.4 -5.76 l1.2 0 c0.28 2.88 2.04 4.6 5.2 4.6 c2.92 0 4.64 -1.84 4.64 -5.2 l0 -4.56 c-1 1.8 -2.88 2.88 -4.96 2.88 c-3.64 0 -6.36 -2.68 -6.36 -6.8 l0 -7.16 c0 -4.24 2.72 -6.92 6.28 -6.92 c2.16 0 4.08 1.08 5.08 3.04 z M95 38.44 c2.76 0 4.84 -2.16 4.84 -5.24 l0 -8.04 c0 -3.12 -2.16 -5.28 -4.84 -5.28 c-3 0 -5.24 2.16 -5.24 5.76 l0 7.16 c0 3.48 2.24 5.64 5.24 5.64 z M117.96 33.8 l1.24 0 c-0.4 4 -2.56 6.6 -6.64 6.6 c-3.84 0 -6.24 -2.64 -6.24 -6.76 l0 -8.16 c0 -4.12 2.4 -6.76 6.24 -6.76 c3.88 0 6.28 2.64 6.28 6.76 l0 4.72 l-11.28 0 l0 3.44 c0 3.44 1.88 5.56 5 5.56 c3.36 0 5.04 -2.08 5.4 -5.4 z M112.55999999999999 19.92 c-3.12 0 -5 2.12 -5 5.56 l0 3.6 l10.08 0 l0 -3.6 c0 -3.44 -1.92 -5.56 -5.08 -5.56 z M131.23999999999998 18.72 c3.28 0 5.28 2.52 5.28 7.72 l0 13.56 l-1.24 0 l0 -13.44 c0 -4.48 -1.48 -6.68 -4.28 -6.68 c-3.2 0 -5.56 2.92 -5.56 7.36 l0 12.76 l-1.24 0 l0 -20.84 l1.12 0 l0.12 2.8 l0 0.72 c1.12 -2.44 3.2 -3.96 5.8 -3.96 z M153.16 33.8 l1.24 0 c-0.4 4 -2.56 6.6 -6.64 6.6 c-3.84 0 -6.24 -2.64 -6.24 -6.76 l0 -8.16 c0 -4.12 2.4 -6.76 6.24 -6.76 c3.88 0 6.28 2.64 6.28 6.76 l0 4.72 l-11.28 0 l0 3.44 c0 3.44 1.88 5.56 5 5.56 c3.36 0 5.04 -2.08 5.4 -5.4 z M147.76 19.92 c-3.12 0 -5 2.12 -5 5.56 l0 3.6 l10.08 0 l0 -3.6 c0 -3.44 -1.92 -5.56 -5.08 -5.56 z M166.35999999999999 18.72 c0.96 0 1.72 0.12 2.16 0.24 l0 1.32 c-0.76 -0.24 -1.48 -0.36 -2.4 -0.36 c-3.16 0 -5.48 2.92 -5.48 7.32 l0 12.68 l-1.24 0 l0 -20.76 l1.12 0 l0.12 2.64 l0 0.88 c1.12 -2.44 3.16 -3.96 5.72 -3.96 z M177.95999999999998 18.72 c3.68 0 5.8 2.36 5.8 6.36 l0 14.92 l-1.12 0 l-0.08 -2.52 c-0.88 1.8 -2.68 2.96 -5.48 2.96 c-3.52 0 -5.88 -2.36 -5.88 -6.32 c0 -3.88 2.48 -6.08 6.92 -6.08 l4.44 0 l0 -2.96 c0 -3.32 -1.64 -5.2 -4.64 -5.2 c-2.88 0 -4.76 1.84 -4.84 4.28 l-1.24 0 c0.2 -3.12 2.48 -5.44 6.12 -5.44 z M177.23999999999998 39.24 c3.52 0 5.32 -2.04 5.32 -5.44 l0 -4.6 l-4.44 0 c-3.72 0 -5.68 1.8 -5.68 4.92 c0 3.24 1.88 5.12 4.8 5.12 z M195.95999999999998 38.96 l0.88 0 l0 1.16 l-0.88 0 c-3.56 0 -5.4 -1.84 -5.4 -5.52 l0 -14.32 l-2.96 0 l0 -1.12 l2.96 0 l0 -4.92 l1.24 0 l0 4.92 l4.72 0 l0 1.12 l-4.72 0 l0 14.32 c0 3.04 1.44 4.36 4.16 4.36 z M206.67999999999998 40.44 c-3.96 0 -6.4 -2.68 -6.4 -6.84 l0 -8.08 c0 -4.16 2.44 -6.8 6.4 -6.8 c3.92 0 6.36 2.64 6.36 6.8 l0 8.08 c0 4.16 -2.44 6.84 -6.36 6.84 z M206.67999999999998 39.24 c3.2 0 5.12 -2.16 5.12 -5.64 l0 -8.08 c0 -3.48 -1.92 -5.6 -5.12 -5.6 s-5.16 2.12 -5.16 5.6 l0 8.08 c0 3.48 1.96 5.64 5.16 5.64 z M225.28 18.72 c0.96 0 1.72 0.12 2.16 0.24 l0 1.32 c-0.76 -0.24 -1.48 -0.36 -2.4 -0.36 c-3.16 0 -5.48 2.92 -5.48 7.32 l0 12.68 l-1.24 0 l0 -20.76 l1.12 0 l0.12 2.64 l0 0.88 c1.12 -2.44 3.16 -3.96 5.72 -3.96 z"></path></g>
			</g>
		</svg>
